<svg id="icon" width="24" height="24" viewBox="0 0 24 24" fill="none" xmlns="http://www.w3.org/2000/svg">
    <path fill="currentColor" fill-rule="evenodd" clip-rule="evenodd" d="M7.79292 7.79289C7.4024 8.18342 7.4024 8.81658 7.79292 9.20711L10.6213 12.0355L7.79287 14.864C7.40235 15.2545 7.40235 15.8877 7.79287 16.2782C8.18339 16.6687 8.81656 16.6687 9.20708 16.2782L12.0356 13.4497L14.864 16.2782C15.2545 16.6687 15.8877 16.6687 16.2782 16.2782C16.6687 15.8877 16.6687 15.2545 16.2782 14.864L13.4498 12.0355L16.2782 9.20714C16.6687 8.81661 16.6687 8.18345 16.2782 7.79292C15.8876 7.4024 15.2545 7.4024 14.8639 7.79292L12.0356 10.6213L9.20714 7.79289C8.81661 7.40237 8.18345 7.40237 7.79292 7.79289Z" />
</svg>
