<svg id="icon" width="18" height="21" viewBox="0 0 18 21" fill="none" xmlns="http://www.w3.org/2000/svg">
  <path
    d="M3 9.76855C3 4.96855 7 3.76855 9 3.76855C13.8 3.76855 15 7.76855 15 9.76855V13.7686L17 15.7686H12H6H1L3 13.7686V9.76855Z"
    fill="#322C2C"/>
  <path
    d="M9 3.76855C7 3.76855 3 4.96855 3 9.76855V13.7686L1 15.7686H6H12H17L15 13.7686V9.76855C15 7.76855 13.8 3.76855 9 3.76855ZM9 3.76855V1.76855M6 16.7686C6 17.7686 6.6 19.7686 9 19.7686C11.4 19.7686 12 17.7686 12 16.7686"
    stroke="#322C2C" stroke-width="2" stroke-linecap="round" stroke-linejoin="round"/>
</svg>
