<svg id="icon" width="24" height="24" viewBox="0 0 24 24" fill="none"
  xmlns="http://www.w3.org/2000/svg">
  <path fill="currentColor"
    d="M12.522 24C5.376 24 0 18.624 0 12.522C0 5.376 5.376 0 12.522 0C18.624 0 24 5.376 24 12.522C24 18.624 18.624 24 12.522 24ZM7.7244 13.0776C7.9908 13.7316 8.4168 14.0304 8.6124 13.9692C8.808 13.9092 8.886 13.7796 8.886 13.7796C8.886 13.7796 9.0612 14.4624 9.174 14.7984C9.5364 15.8664 10.8132 17.076 11.5356 17.2836C11.9412 17.4012 12.1644 17.3712 12.546 17.2836C13.0812 17.1636 14.2884 16.1964 14.85 14.85C14.964 14.5392 15.0684 14.2908 15.1776 13.7364C15.1776 13.6848 15.216 13.824 15.4908 13.8576C15.7668 13.8912 15.882 13.5084 16.1628 12.9384C16.6692 11.7384 16.5948 10.9248 16.2552 10.8624C16.0908 10.8312 15.9744 10.914 15.8628 11.0172C15.8064 11.0172 15.75 11.0172 15.75 10.9656C15.75 10.602 15.8232 10.062 15.942 9.0372C16.2084 6.7212 15.6252 5.9748 15.6252 5.9748C15.6252 5.9748 15.2844 6.1908 13.8708 5.6148C12.8568 5.2008 11.3712 5.0556 10.1352 5.4468C9.2568 5.724 9.4512 6.2268 9.4512 6.2268C9.4512 6.2268 8.5728 5.8848 8.058 6.9348C7.704 7.6572 7.95 8.4792 8.2068 9.6528C8.334 10.2288 8.3064 10.8048 8.37 11.1528C8.37 11.1528 8.2548 11.2572 8.1624 11.1684C8.07 11.0796 7.8108 10.8276 7.6584 10.8276C7.488 10.8276 7.266 11.094 7.338 11.6364C7.41 12.18 7.458 12.4248 7.7244 13.0776ZM15.8868 17.3652L12.0156 19.2924L8.1372 17.3652L5.202 18.8916C5.202 18.8916 6.99 22.0176 11.9964 22.0176C17.0028 22.0176 18.798 18.8916 18.798 18.8916L15.8868 17.3652Z" />
</svg>
